<svg xmlns="http://www.w3.org/2000/svg" width="198.19" height="35" viewBox="0 0 198.19 35"><rect class="svg__rect" x="0" y="0" width="118.29" height="35" fill="#31C4F3"/><rect class="svg__rect" x="116.29" y="0" width="81.9" height="35" fill="#389AD5"/><path class="svg__text" d="M17.33 22L14.22 22L14.22 13.47L17.14 13.47Q18.59 13.47 19.34 14.05Q20.10 14.63 20.10 15.78L20.10 15.78Q20.10 16.36 19.78 16.83Q19.47 17.30 18.86 17.56L18.86 17.56Q19.55 17.75 19.93 18.26Q20.31 18.78 20.31 19.51L20.31 19.51Q20.31 20.71 19.53 21.36Q18.76 22 17.33 22L17.33 22ZM15.70 18.15L15.70 20.82L17.35 20.82Q18.04 20.82 18.44 20.47Q18.83 20.13 18.83 19.51L18.83 19.51Q18.83 18.18 17.47 18.15L17.47 18.15L15.70 18.15ZM15.70 14.66L15.70 17.06L17.15 17.06Q17.84 17.06 18.23 16.75Q18.62 16.43 18.62 15.86L18.62 15.86Q18.62 15.23 18.26 14.95Q17.90 14.66 17.14 14.66L17.14 14.66L15.70 14.66ZM24.64 19.16L24.64 19.16L24.64 13.47L26.12 13.47L26.12 19.18Q26.12 20.03 26.55 20.48Q26.98 20.93 27.83 20.93L27.83 20.93Q29.54 20.93 29.54 19.13L29.54 19.13L29.54 13.47L31.02 13.47L31.02 19.17Q31.02 20.53 30.15 21.32Q29.28 22.12 27.83 22.12L27.83 22.12Q26.36 22.12 25.50 21.33Q24.64 20.55 24.64 19.16ZM37.15 22L35.67 22L35.67 13.47L37.15 13.47L37.15 22ZM47.32 22L41.96 22L41.96 13.47L43.44 13.47L43.44 20.82L47.32 20.82L47.32 22ZM53.90 22L51.44 22L51.44 13.47L53.96 13.47Q55.09 13.47 55.97 13.97Q56.84 14.48 57.32 15.40Q57.81 16.33 57.81 17.52L57.81 17.52L57.81 17.95Q57.81 19.16 57.32 20.08Q56.84 21.00 55.94 21.50Q55.05 22 53.90 22L53.90 22ZM52.92 14.66L52.92 20.82L53.89 20.82Q55.06 20.82 55.68 20.09Q56.31 19.36 56.32 17.99L56.32 17.99L56.32 17.52Q56.32 16.13 55.71 15.40Q55.11 14.66 53.96 14.66L53.96 14.66L52.92 14.66ZM69.63 22L67.66 13.47L69.13 13.47L70.46 19.88L72.08 13.47L73.33 13.47L74.94 19.89L76.25 13.47L77.72 13.47L75.75 22L74.33 22L72.71 15.77L71.05 22L69.63 22ZM83.36 22L81.88 22L81.88 13.47L83.36 13.47L83.36 22ZM89.85 14.66L87.21 14.66L87.21 13.47L93.98 13.47L93.98 14.66L91.32 14.66L91.32 22L89.85 22L89.85 14.66ZM99.22 22L97.74 22L97.74 13.47L99.22 13.47L99.22 17.02L103.03 17.02L103.03 13.47L104.51 13.47L104.51 22L103.03 22L103.03 18.21L99.22 18.21L99.22 22Z" fill="#FFFFFF"/><path class="svg__text" d="M132.86 22L130.48 22L130.48 13.60L134.32 13.60Q135.46 13.60 136.30 13.98Q137.14 14.35 137.60 15.06Q138.05 15.76 138.05 16.71L138.05 16.71Q138.05 17.62 137.63 18.30Q137.20 18.98 136.41 19.36L136.41 19.36L138.22 22L135.68 22L134.15 19.77L132.86 19.77L132.86 22ZM132.86 15.47L132.86 17.93L134.18 17.93Q134.91 17.93 135.28 17.61Q135.65 17.29 135.65 16.71L135.65 16.71Q135.65 16.12 135.28 15.79Q134.91 15.47 134.18 15.47L134.18 15.47L132.86 15.47ZM149.59 22L142.84 22L142.84 13.60L149.43 13.60L149.43 15.44L145.20 15.44L145.20 16.85L148.93 16.85L148.93 18.63L145.20 18.63L145.20 20.17L149.59 20.17L149.59 22ZM155.81 22L153.38 22L157.09 13.60L159.43 13.60L163.15 22L160.68 22L160.02 20.37L156.47 20.37L155.81 22ZM158.25 15.93L157.16 18.61L159.32 18.61L158.25 15.93ZM166.88 17.80L166.88 17.80Q166.88 16.54 167.47 15.54Q168.07 14.55 169.12 13.99Q170.18 13.43 171.49 13.43L171.49 13.43Q172.65 13.43 173.57 13.84Q174.49 14.25 175.11 15.02L175.11 15.02L173.60 16.39Q172.78 15.40 171.62 15.40L171.62 15.40Q170.93 15.40 170.40 15.70Q169.86 16 169.57 16.54Q169.27 17.09 169.27 17.80L169.27 17.80Q169.27 18.51 169.57 19.05Q169.86 19.60 170.40 19.90Q170.93 20.20 171.62 20.20L171.62 20.20Q172.78 20.20 173.60 19.22L173.60 19.22L175.11 20.58Q174.50 21.35 173.57 21.76Q172.65 22.17 171.49 22.17L171.49 22.17Q170.18 22.17 169.12 21.61Q168.07 21.05 167.47 20.05Q166.88 19.06 166.88 17.80ZM181.44 15.48L178.85 15.48L178.85 13.60L186.38 13.60L186.38 15.48L183.81 15.48L183.81 22L181.44 22L181.44 15.48Z" fill="#FFFFFF" x="129.29000000000002"/></svg>